<?xml version="1.0" encoding="utf-8"?>
<!-- Generator: Adobe Illustrator 23.0.0, SVG Export Plug-In . SVG Version: 6.00 Build 0)  -->
<svg version="1.1" id="Layer_1" xmlns="http://www.w3.org/2000/svg" xmlns:xlink="http://www.w3.org/1999/xlink" x="0px" y="0px"
	 viewBox="0 0 50 37.2" style="enable-background:new 0 0 50 37.2;" xml:space="preserve">
<style type="text/css">
	.st0{fill:#FFFFFF;}
	.st1{fill:#A16DE1;}
</style>
<g>
	<path class="st0" d="M45,0H5C2.2,0,0,2.2,0,5v20.8c0,2.8,2.2,5,5,5h12.8l5.5,5.5c1.2,1.2,3.1,1.2,4.2,0l5.5-5.5H45c2.8,0,5-2.2,5-5
		V5C50,2.2,47.8,0,45,0z"/>
	<path class="st1" d="M10.5,8.7c1.6,0,2.9,1.3,2.9,2.9s-1.3,2.9-2.9,2.9s-2.9-1.3-2.9-2.9S8.9,8.7,10.5,8.7z M10.5,15.6
		c-4.7,0-5.5,2.3-5.5,3c0,0.6,0.5,1.1,1.1,1.2c0,0,0,0,0,0h8.7c0.6,0,1.2-0.5,1.2-1.1c0,0,0,0,0,0C16.1,17.9,15.2,15.6,10.5,15.6z"
		/>
</g>
</svg>
