<?xml version="1.0" encoding="utf-8"?>
<!-- Generator: Adobe Illustrator 23.0.0, SVG Export Plug-In . SVG Version: 6.00 Build 0)  -->
<svg version="1.1" id="Layer_1" xmlns="http://www.w3.org/2000/svg" xmlns:xlink="http://www.w3.org/1999/xlink" x="0px" y="0px"
	 viewBox="0 0 48 48" style="enable-background:new 0 0 48 48;" xml:space="preserve">
<style type="text/css">
	.st0{fill:url(#Path_17106-2_1_);}
</style>
<g transform="matrix(1, 0, 0, 1, -30, -20)">
	
		<linearGradient id="Path_17106-2_1_" gradientUnits="userSpaceOnUse" x1="21.7051" y1="76.2396" x2="21.7051" y2="75.4974" gradientTransform="matrix(64.6692 0 0 -61.885 -1349.65 4739.1206)">
		<stop  offset="0" style="stop-color:#FF5252"/>
		<stop  offset="1" style="stop-color:#FF7171"/>
	</linearGradient>
	<path id="Path_17106-2" class="st0" d="M73.2,49.8c-0.2,0.2-0.3,0.5-0.3,0.9l1,5.3c0.1,0.8,0,1.6-0.5,2.2c-0.5,0.6-1.2,1.1-1.9,1.2
		L66.1,60c-0.3,0-0.6,0.2-0.7,0.5l-2.3,4.8c-0.7,1.4-2.4,2-3.8,1.4c-0.1,0-0.1-0.1-0.2-0.1L54.5,64c-0.3-0.2-0.6-0.2-0.9,0l-4.7,2.6
		c-0.4,0.2-0.9,0.3-1.4,0.3c-0.3,0-0.6,0-0.9-0.1c-0.7-0.2-1.4-0.8-1.7-1.5l-2.3-4.8c-0.1-0.3-0.4-0.5-0.7-0.5l-5.3-0.7
		c-0.8-0.1-1.5-0.5-1.9-1.2c-0.5-0.6-0.6-1.4-0.5-2.2l1-5.3c0.1-0.3-0.1-0.6-0.3-0.9l-3.9-3.7c-1.2-1.1-1.2-2.9-0.1-4.1
		c0,0,0.1-0.1,0.1-0.1l3.9-3.7c0.2-0.2,0.3-0.5,0.3-0.9l-1-5.3c-0.3-1.6,0.7-3,2.3-3.3c0.1,0,0.1,0,0.2,0l5.3-0.7
		c0.3,0,0.6-0.2,0.7-0.5l2.3-4.8c0.7-1.4,2.4-2,3.8-1.4c0,0,0.1,0,0.1,0.1l4.7,2.6c0.3,0.2,0.6,0.2,0.9,0l4.7-2.6
		c1.4-0.8,3.1-0.3,3.9,1.1c0,0.1,0.1,0.1,0.1,0.2l2.3,4.8c0.1,0.3,0.4,0.5,0.7,0.5l5.3,0.7c1.6,0.2,2.7,1.6,2.5,3.2
		c0,0.1,0,0.1,0,0.2l-1,5.3c-0.1,0.3,0,0.6,0.3,0.9l3.9,3.7c1.2,1.1,1.2,2.9,0.1,4.1c0,0-0.1,0.1-0.1,0.1L73.2,49.8z"/>
</g>
</svg>
